# xmcd
#
# Track frame offsets:
# 150
# 13043
# 25451
# 40810
# 54404
# 69337
# 82888
# 96586
# 108818
# 120974
# 136372
# 159550
# 172697
# 184753
# 198708
# 212444
# 227890
# 239193
#
# Disc length: 3367 seconds
#
#
# Revision: 0
# Processed by: cddbd v1.5.1PL2 Copyright (c) Steve Scherf et al.
# Submitted via: FreeRIP 2.944 
#
DISCID=ee0d2512
DTITLE=diverse - The Best Of Blues cd 2
DYEAR=2005
DGENRE=Blues
TTITLE0=Muddy Waters - Hoochie Coochie Man
TTITLE1=Elmore James - Dust My Broom
TTITLE2=Big Joe Williams - Baby, Please Don't Go
TTITLE3=Sonny Boy Williamson - Good Morning Little Schoolgirl
TTITLE4=Elmore James - Whose Muddy Shoes
TTITLE5=Woody Guthrie - House Of The Rising Sun
TTITLE6=T- Bone Walker - Stormy Monday
TTITLE7=John Lee Hooker - I'm In The Mood
TTITLE8=Otis Spann - Five Spot
TTITLE9=Muddy Waters - Honey Bee
TTITLE10=Howlin'Wolf - I'm The Wolf
TTITLE11=Arthur 'Big Boy'Crudup - That's All Right Mama
TTITLE12=Memphis Slim - Really Got The Blues
TTITLE13=Little Walter - Blues With A Feeling
TTITLE14=Robert Nighthawk - Black Angel Blues
TTITLE15=Eddie Boyd - 24 Hours
TTITLE16=John Lee Hooker - Boom Boom
TTITLE17=Floyd Dison - Call Operator
EXTD=
EXTT0=
EXTT1=
EXTT2=
EXTT3=
EXTT4=
EXTT5=
EXTT6=
EXTT7=
EXTT8=
EXTT9=
EXTT10=
EXTT11=
EXTT12=
EXTT13=
EXTT14=
EXTT15=
EXTT16=
EXTT17=
PLAYORDER=
